<?xml version="1.0"?><svg version="1.2" baseProfile="tiny-ps" viewBox="0 0 300 300" xmlns="http://www.w3.org/2000/svg" xmlns:xlink="http://www.w3.org/1999/xlink"><title>Golden Arthouse Entertainment</title><g><g fill="#fff" transform="matrix(.1 0 0 -.1 0 300)"><path d="M0 1500V0h3000v3000H0V1500z"/></g><g fill="#d9d9d9" transform="matrix(.1 0 0 -.1 0 300)"><path d="M1365 2522c-33-10-82-29-110-42l-49-25-52-52-52-51-26-57-27-56-15-77-15-77 6-72c7-82 27-158 60-224l23-45 40-36c56-51 118-85 187-102l59-16h144l64 20c34 11 64 20 65 20s0-30-4-67l-5-68-16-12c-9-7-26-13-39-13h-23v-40h371l-3 22-3 23-30 5-30 5-3 287-2 287 22 3 23 3 3 23 3 22h-401v-50h99l15-16 16-15v-327l-47-24-48-23h-65l-65 1-41 21c-22 12-55 37-71 57l-31 34-21 57c-41 110-51 268-26 408l13 78 30 52 29 52 48 30 48 30h182l54-30 54-30 29-39c15-21 38-66 50-98l21-59 16 3 16 3 3 148 3 147h-38l-12-26-12-26-17 5c-9 3-48 18-87 33l-70 26-90 4-90 4-60-18zm-171-231c3-5 3-23 0-40l-6-31h-59l-6 16-6 15 11 25 12 24h24c14 0 27-4 30-9zm-36-137 22-6v-22c0-11-3-31-6-43l-6-23h-78v100h23c12 0 32-3 45-6zm657-149v-30l-37-3-38-3v29c0 37 7 44 45 40l30-3v-30zm-631-56c4-23 5-43 4-44-2-1-20-5-41-8l-38-6-9 25c-6 14-10 36-10 50v24h87l7-41zm631-69 6-20-6-21-7-20-31 3-32 3-3 23c-2 13-1 30 2 38l5 14h60l6-20zm-602-82 14-33-19-7c-25-10-41-2-61 31-23 39-22 41 18 41h35l13-32zm603-73c3-14 3-32 0-41l-6-15-32 3-33 3-3 23c-2 13-1 30 2 38l5 14h61l6-25zm0-140c4-8 3-26 0-40l-6-25h-70v33c0 41 5 47 42 47h29l5-15zM380 1218l-45-23-13-39-12-38 10-39 11-38 28-20 28-20 41-7 40-6 36 12 36 12v98h10c6 0 10 5 10 10v10H460v-10c0-5 5-10 10-10h10v-100h-27c-34 0-46 8-62 37l-11 22v92l11 22c16 29 28 37 61 37h27l20-27c25-31 31-28 24 9l-5 26-21 6c-40 11-73 6-117-16zm375 12c-16-4-24-8-17-9l12-1v-208l-12-5c-7-3 12-5 42-5s49 2 43 5l-13 5v228l-12-1c-7-1-26-5-43-9zm180 0c-16-4-24-8-17-9l12-1v-60h-67l-15-17c-9-10-19-28-23-41l-6-22 6-31 7-30 24-16 25-16 24 11 24 11 3-10 3-10 40 10c22 5 34 9 28 10l-13 1v230l-12-1c-7-1-26-5-43-9zm-7-139 3-53-12-14-12-14-13 11-14 11v40c0 22 5 48 11 59l10 20 12-4 12-4 3-52zm538 57c-20-51-46-105-57-120l-20-28h75l-18 13-17 13 12 27 12 27h65l10-29 10-29-11-11-11-11h188l-12 12-12 12v96h58l6 15c3 8 10 15 16 15h10v-138l13-10 12-10 80 8c44 4 74 8 68 9l-13 1v108l15 12 14 12 11-7 10-6v-105l-12-12-12-12h98l-12 12-12 12v114l-15 12-15 13-35-6-35-6v91l-22-6c-13-3-32-6-43-6l-20-1 18-10 17-10v-188l-10-6-10-6v19l-17-2-18-1-3 62-3 61 23 5 23 4-22 2-23 1v41l-26-20-27-21h-63l-12-12-12-12v36l-16-6c-9-3-25-6-37-6h-21l12-12 12-12v-115l-9-5-9-6-10 13c-5 6-26 55-47 107-20 52-41 99-45 103l-7 8-37-93zm44-54c0-2-11-4-25-4-29 0-28-2-14 40l12 32 13-32c8-18 14-34 14-36zm-330 66-35-5 13-8 12-8v-127l-12-5c-7-3 34-5 92-5s99 2 93 5l-13 5v48c0 27-4 60-10 74l-10 26h-69l-7-12-7-12-6 15-6 14-35-5zm90-86v-65l-22 3-23 3-3 48-3 49 12 14c6 8 18 14 25 14h14v-66zm970 87-35-6 18-7 17-7v-131l25-12 25-11 24 11 25 11 3-9 3-9 35 8 35 7-13 7-12 8v145l-36-4-36-4 11-11 11-11v-105l-19-10-18-10-7 6c-3 3-6 39-6 80v73l-7-1c-5-1-24-4-43-8zm-1655-26-25-24v-63l30-30 31-30 36 5 37 6 17 18c17 18 22 38 20 81l-1 22-20 20-20 20h-81l-24-25zm88-19 9-27-7-35-6-35-15-6c-21-8-26 0-31 50l-5 44 12 22 11 22 12-4c6-2 15-16 20-31zm348 18-21-27v-23c0-13 5-34 11-47l11-25 25-11 25-12 22 7c23 7 56 33 56 45v7l-31-11-31-12-19 24c-10 13-19 27-19 32v9h100v37l-18 16-19 17h-72l-20-26zm77-7 3-17h-52l11 21 11 20 12-4c7-2 13-11 15-20zm973 7-21-27v-67l20-20c11-11 31-22 45-26l25-6 31 12c36 15 49 37 49 83v34l-23 21-23 22h-83l-20-26zm83 0c3-9 6-38 6-65v-50l-16-6-16-6-9 14c-10 16-12 90-3 113 3 9 12 16 19 16s16-7 19-16zm272 10c-28-27-13-65 34-89l30-16v-29h-47l-12 26c-14 32-26 25-17-10l6-26 27-6 27-7 25 14 26 15 3 26 3 26-35 27-36 27v28h29l15-27 15-28 1 33v32h-79l-15-16zm133-5-20-20 3-46 3-46 27-20 26-20 26 7c26 6 72 44 64 52-3 2-18-2-35-8l-31-12-16 13c-9 8-16 22-16 32v19h43c24 0 47 3 50 6l6 7-11 21c-15 29-28 36-65 36h-33l-21-21zm71-9 11-20h-51v13c0 31 25 35 40 7zM300 930v-10h2390v20H300v-10zm15-80-6-10h23l-4-65-4-65h94l5 20 5 20h-8c-5 0-12-4-15-10-3-5-15-10-26-10h-19v42l20-5 20-5-1 26-1 27-5-12c-2-7-11-13-19-13h-14v50h38l5-12 4-13 7 6 6 6-6 17-6 16h-87l-6-10zm180-65v-75h23c24 0 28 10 11 27l-10 10 3 34 3 34 40-55 40-55 3 68 3 67h9c6 0 10 5 10 10v10h-48l5-40c3-22 3-40-1-40-3 0-18 18-32 40l-27 40h-32v-75zm198 60-5-16 7-7 8-7 4 13c3 6 12 12 20 12h15l-4-65-4-65h42l-4 65-4 65h14c8 0 19-5 26-12l12-12v44H699l-6-15zm202-60v-75h93l5 20 5 20h-8c-5 0-12-4-15-10-3-5-15-10-26-10h-19v42l20-5 20-5-1 26-1 27-5-12c-2-7-11-13-19-13h-14v50h38l5-12 4-13 7 6 6 6-6 17-6 16h-83v-75zm170 0v-75h55v10c0 6-4 10-10 10h-10v20c0 23 15 27 23 6 7-18 55-51 63-43 3 2-7 17-21 33l-26 27 11 11c5 5 10 20 10 33v22l-19 11c-11 5-32 10-48 10h-28v-75zm68 43c6-19-3-38-19-38h-14v50h14c8 0 16-6 19-12zm107 10v-22l12 12c7 7 18 12 25 12h13V734l-12-12-12-12h60l-4 65-4 65h15c8 0 17-6 20-12l4-13 8 7 7 7-5 16-6 15h-121v-22zm223-18c-11-25-23-55-27-67-4-13-12-23-17-23s-9-4-9-10v-10h50l-3 22-2 23 23 3 22 3 1-13c1-7 1-19 0-25l-2-13h51v10c0 6-4 10-9 10s-12 11-15 24-14 43-25 67l-19 44-19-45zm22-30 6-10h-10c-6 0-11 5-11 10 0 6 2 10 4 10 3 0 8-4 11-10zm130 60-6-10h21V730h-10c-5 0-10-4-10-10v-10h60v10c0 6-4 10-10 10h-10v110h10c6 0 10 5 10 10v10h-24c-14 0-28-4-31-10zm115 0c0-5 5-10 10-10h10V730h-10c-5 0-10-4-10-10v-10h47l-4 53-5 52 37-50c20-27 40-51 45-53l10-4v60c0 33 3 67 6 76l6 16h-52v-9c0-5 5-11 11-13l11-4-4-33-3-33-32 46-33 46h-40v-10zm210 0c0-5 5-10 10-10h10v-99l-10-6c-5-3-10-10-10-16v-9h48l-4 43-4 42 21-45 21-45 25 50 24 50-4-47-5-48h60l-12 15-12 15 4 60 4 60h-37l-21-47-20-48-20 48-20 47h-48v-10zm245-65v-75h94l6 21c8 25-2 39-11 15l-6-16h-48v42l25-6 25-6v50h-10c-5 0-10-4-10-10 0-5-7-10-15-10h-15v50h18c10 0 24-6 31-12l13-13-4 20-3 20-45 3-45 3v-76zm165 65c0-5 5-10 10-10h10V730h-10c-5 0-10-4-10-10v-10h47l-4 53-5 52 37-50c20-27 40-51 45-53l10-4v60c0 33 3 67 6 76l6 16h-52v-9c0-5 5-11 11-13l11-4-4-33-3-33-32 46-33 46h-40v-10zm210-12v-22l12 12c7 7 18 12 25 12h13V730h-10c-5 0-10-4-10-10v-10h62l-7 18c-14 31-17 61-11 87l6 25h14c8 0 16-6 19-12l4-13 8 7 7 7-5 16-6 15h-121v-22z"/></g><g fill="#a2a2a2" transform="matrix(.1 0 0 -.1 0 300)"><path d="M1392 2525c-35-8-87-25-117-39l-55-25-55-52-55-52-29-59c-16-32-35-84-42-116l-11-57 4-105 5-105 21-58c11-32 36-79 54-104l33-46 48-33c26-18 73-42 105-54l57-22 75-5 75-5 60 15c33 9 71 19 84 23l24 7-5-67-6-66-12-15-12-15h-58v-40h360v35l-33 15-32 15-3 230c-2 127 0 254 3 282l6 53 25 6 25 6-3 17-3 16-198 3-197 2v-39l55-6 56-7 11-22 12-21 4-151 4-151-28-20c-16-11-47-26-68-33l-39-13-58 6-59 5-43 25-43 26-28 40c-15 21-37 68-49 103l-21 63v155l-1 155 22 70 22 70 31 37 30 36 43 21 43 21h143l54-20 53-20 30-32c39-42 56-71 79-130l18-48h37v290h-38l-5-20c-3-11-12-23-21-26l-17-6-57 25c-103 46-199 56-310 32zm-192-244c0-9-3-26-6-39l-7-23-35 3-35 3-4 10c-1 6 6 24 16 41l19 32 26-5 26-5v-17zm-32-130 13-8-3-39-3-39-49-3-49-3 7 23c3 13 6 35 6 51v27h33c17 0 38-4 45-9zm652-146v-35h-80v70h80v-35zm-636-37c3-13 6-33 6-44v-22l-22-6c-13-3-33-6-44-6h-22l-6 23c-3 12-6 34-6 50v27h88l6-22zm634-110 3-38h-81v81l38-3 37-3 3-37zm-601-63 11-35-26-7-25-6-24 29c-12 16-23 35-23 42v12h77l10-35zm603-85v-40h-80v80h80v-40zm0-149v-39l-12-4c-6-2-24-2-40 0l-28 4v78h80v-39zM770 1232l-25-3 3-106 3-106-13-8-13-9h97l-10 13-11 13-3 105-3 104-25-3zm170-3c-19-4-29-7-22-8l12-1v-60h-28c-37 0-60-18-70-55l-9-30 9-32 8-33 20-10 19-10 25 10c32 12 34 21 4 17l-23-2-3 55-2 55 9 14 9 14 16-6 16-6v-53c0-29 3-62 6-74l5-20 30 4 30 4-10 12-10 12-3 105-3 104-35-6zm945 2-30-6 13-8 12-8v-185l-12-12-12-12h99l-13 9-13 8 3 59 3 59 23 3 22 3v-129l-12-5c-7-3 10-5 37-5 28 0 44 2 38 5l-13 5v109l-10 20-11 19h-55l-12-12-12-12v104l-7-1c-5-1-21-4-38-8zm-1531-35-34-34v-94l34-34 34-34h57l-25 13-25 13-12 34-13 35 5 39c7 50 21 75 48 86l22 9h-28l-29 1-34-34zm124 24 22-10 10-22 9-23v33l1 32-32-1h-33l23-9zm982-92c-23-57-47-109-52-115l-10-13h54l-11 14-11 14 10 26 10 26h68l12-31 13-31-14-9-14-9h190l-13 9-13 8 3 54 3 54 28-2 27-2v29h30v-59c0-33 3-66 6-75l6-16h57l6 10 6 10h-31v129l23 4 22 4-22 2-23 1v43l-23-21-23-22h-70l-12-12-12-12v24h-74l12-12 12-12v-126h-28l-32 78c-18 42-38 92-46 110-7 17-15 32-17 32-3 0-24-46-47-102zm44-15 7-23h-51v10c0 5 5 21 12 35l12 26 7-13c3-7 10-23 13-35zm-324 46c-19-4-29-7-22-8l12-1v-138l-12-5c-7-3 9-6 36-6l48-1-11 14-12 14 3 48 3 47 18 11 18 11 9-15c5-8 10-35 10-60v-46l-12-12-12-12h86l-10 13-11 13-3 58-3 59-17 11-17 11-30-12-30-11-3 12-3 11-35-6zm1070 1-35-5 13-8 12-8v-115l12-12c7-7 24-12 38-12s31 5 38 12l12 12v-30l38 5 37 4-12 4-13 5v154l-36-4-36-4 11-11 11-11v-104l-15-12-16-13-9 9-9 9-3 70-3 70-35-5zm-1651-13c-9-7-21-23-28-35l-13-24 7-26c4-15 14-35 22-44l16-18h38l-11 19c-11 22-14 90-4 115 16 42 54 2 54-56v-34l-16-22-15-22h41l20 20 20 20v79l-26 20-27 21h-31l-31-1-16-12zm432-4-22-18-5-35-6-35 22-28 21-27h65l22 16c12 8 22 20 22 27v11l-12-12-12-12h-55l-11 19c-5 11-10 24-10 30v11h100v15c0 8-9 24-20 35l-20 20h-58l-21-17zm67-21 3-22h-51v9c0 5 3 17 6 26l7 16 16-3 16-3 3-23zm977 13-25-24v-58l21-27 20-26h41l-10 13c-5 6-12 26-16 42l-6 30 8 30 8 30 17 3 17 3 10-26c14-36 12-65-4-97l-15-28h38l20 26 21 27v58l-25 24-24 25h-72l-24-25zm357 13c-6-6-12-22-12-34v-23l16-15c8-9 25-21 36-27l20-11-5-19-5-19h14c7 0 18 9 24 20l11 21-6 19-6 19-35 21c-37 24-43 37-17 47l16 6 20-24 19-24-3 25-4 25-35 3-35 3-13-13zm134-9-26-20v-75l16-22 15-22h76l16 18c10 10 17 22 17 27v9l-12-12c-7-7-22-12-34-12h-23l-15 22c-9 12-16 26-16 30v8h100v37l-18 16-19 17h-50l-27-21zm69-10c9-26 3-31-28-27l-24 3 8 23 8 22h30l6-21zm-2157-63 4-54-19-5-18-5 40 1 40 2 5 45c3 25 9 51 13 58l8 12h-76l3-54zm1936-19c3-10 6-25 6-33v-14h44l-16 13c-8 6-21 21-28 32l-12 20 6-18zM310 930v-10h2380v20H310v-10zm15-150v-71l45 3 45 3 3 20 4 20-13-12c-7-7-23-13-36-13h-23v41l16 6 16 6 9-14 9-14v42l-25-5-25-4v54l30-4 30-5v17h-85v-70zm173 63 12-5V730h-10c-5 0-10-4-10-10v-10h37l-5 55c-2 30-2 55 0 55 3 0 20-22 39-50 19-27 37-50 42-50h7v118l13 5 12 5-25 1-26 1 4-42 4-43-32 43-32 42-21-1-22-1 13-5zm192-8v-15l20 12 21 13 9-15c13-20 13-77 0-101l-11-19h47l-4 65-4 65h14c8 0 19-5 26-12l12-12v34H690v-15zm205-55v-71l45 3 45 3 3 18 4 18-20-12-19-12-17 6-16 6v32l16 6 16 6 9-14 9-14v42l-26-5-26-5 4 24 3 24h28c15-1 27 3 27 7v8h-85v-70zm174 61 14-9-5-61-4-61h35l-5 38-6 37 29-31c24-28 63-51 63-39 0 2-12 16-26 30l-26 27 11 11c6 6 11 21 11 33v22l-16 6c-9 3-32 6-52 6h-37l14-9zm66-26v-20l-17-3-18-3v52l18-3 17-3v-20zm106 18 1-18 5 13 5 12h40l-4-65-4-65h32l-4 65-4 65h19c10 0 25-6 32-12l14-13-5 15-5 15-61 3-62 3 1-18zm215-35c-11-29-23-57-27-62-14-15-11-22 9-23l19-2-5 26-5 25 29-4 29-3-2-22-3-23h42l-7 18c-4 9-16 41-27 70-11 28-23 52-27 52s-15-24-25-52zm34-9c0-5-4-9-10-9-5 0-10 7-10 16v15l10-6c6-3 10-10 10-16zm135-9v-70h30v140h-30v-70zm120 0v-70h32l-5 50c-2 28-2 50 1 50s20-20 37-45 35-45 40-45h8l4 65 3 65-25-1-25-1 13-5 12-5v-83l-31 48-31 47h-33v-70zm213 10 4-60h-11c-6 0-11-4-11-10v-10h54l-12 12-12 12v27c0 15 4 30 10 34l9 6 12-41c7-22 16-40 21-40 4 0 16 19 25 42l16 41 9-24 9-24-6-22-5-23h35v140h-45v-9c0-5-7-26-16-47l-16-39-18 45-17 45-19 3-19 3 3-61zm231 51 14-9-5-61-4-61h75l11 20 11 20h-11c-5 0-10-4-10-10v-10h-50v50h13c7 0 18-5 25-12l12-12v44l-25-6-25-6v52h18c10 0 23-5 30-12l12-12v34h-105l14-9zm170 0 14-9-5-61-4-61h33l-5 50c-2 28-2 50 0 50 3 0 19-20 37-45s35-45 39-45h7l-3 50-4 51 12 14 12 15-28-1-29-1 13-5 12-5v-83l-31 48-31 47h-53l14-9zm202-8 1-18 5 13 5 12h40l-4-65-4-65h32l-4 65-4 65h40l5-12 5-13 1 18 1 17h-120l1-17z"/></g><g fill="#707070" transform="matrix(.1 0 0 -.1 0 300)"><path d="M1430 2528c-78-9-137-30-206-73-90-58-148-141-179-260l-15-59v-161l15-63c8-34 26-84 39-110l24-47 51-48 52-48 53-24c30-13 82-29 117-35l64-12 63 6 64 7 49 18 49 19v-124l-15-21-15-22-28-3-27-3v-30l178-3 177-2v40h-19c-11 0-27 7-35 16l-16 15v518l10 25 10 26h30v30l-135 2c-74 1-161 2-192 3h-58l-3-16-3-16 51-5 51-5 17-17 17-17 3-163 4-163-53-27-53-26h-121l-45 21c-25 11-56 30-68 42-35 32-72 110-88 186l-14 66v230l15 63c27 112 71 174 150 208l40 18 70-1h70l50-22c28-12 65-36 84-54l33-32 29-60c16-33 29-66 29-72v-13h28l6 23c3 12 6 75 6 139v117l-12 7-11 7-19-26c-24-33-26-33-106-1l-64 25-66 7-67 7-65-7zm-229-236c3-4 2-22-3-39l-9-33h-79v11c0 6 7 27 16 46l17 34 26-6c14-4 29-9 32-13zm-21-181v-49l-40-7-39-7-11 7-10 6v27c0 15 3 37 6 50l6 22h88v-49zm640-105v-35l-17-3c-10-2-28-2-40 0l-23 4v68h80v-34zm-642-18 12-12v-74l-16-6c-9-3-29-6-45-6h-29l-5 25c-3 14-7 36-10 49l-5 25 27 4c51 8 59 7 71-5zm642-128v-40h-80v80h80v-40zm-604-55c7-19 14-39 14-45v-10h-59l-20 26c-12 15-21 33-21 40v13l28 4c15 2 31 5 35 6 4 0 15-15 23-34zm602-97-3-43h-70l-3 43-3 42h82l-3-42zm2-148v-41l-15-5c-8-4-26-3-40 0l-25 6v80h80v-40zM765 1230l-30-5 13-8 12-8v-185l-12-12-12-12h86l-10 13-11 13-3 105-3 104-30-5zm180 0-30-5 13-8 12-8v-58l-28 5-27 6-28-22-27-21v-86l18-16 19-17h24l24 1-17 10-18 10v120l16 6 17 6 14-19 14-19-2-45c-1-25-1-52 0-61l1-16 31 5 31 5-11 6-10 7-3 109-3 110-30-5zm-561-10c-12-4-31-21-43-36l-21-27v-87l28-29 27-30 30-7 30-6-22 16-22 17-12 38-12 39 7 37 7 37 24 24 24 24-12-1c-7 0-22-4-33-9zm109-12c22-23 34-20 23 7l-5 15h-40l22-22zm999-5-9-29 29-73 29-74-5-14-5-13h154l-2 67c-1 38-2 74-2 81l-1 12h-50v-151l-17 3-17 3-41 102c-22 56-43 105-47 108-3 3-10-7-16-22zm386-79 3-107-13-8-13-9h80l-3 60-4 61 14 16 13 17-12-8-13-7v91h-55l3-106zm-88 53-25-22 5-65c3-36 9-71 13-77l8-13h24c13 0 27 5 30 10l6 10h-30l-3 89-3 89-25-21zm-1194-38-26-20v-79l20-20c11-11 27-20 36-20h16l-12 15-12 15v100l12 15 12 15h-9c-6 0-22-9-37-21zm68 5 16-15v-45c0-25-5-54-10-65l-11-19h15c8 0 24 12 35 26l21 27v58l-25 24c-13 14-31 25-40 25h-16l15-16zm379 4-22-11-10-28-9-28 5-23c3-13 13-31 21-40l15-18h28c39 0 58 9 71 34l10 21-13-12-13-13h-26c-14 0-31 5-38 12l-12 12v82l12 12c14 14 10 14-19 0zm43 4c6-4 14-17 18-29l7-23h20c10 0 19 4 19 8 0 14-45 52-61 52h-14l11-8zm92-57 4-65-12-15-12-15 43 1c24 0 38 3 32 6l-13 5v148h-46l4-65zm66 53-7-13 8 7 8 8 14-11 13-11v-104l-12-12-12-12h88l-12 12-12 12v112l-12 12c-7 7-22 12-34 12h-23l-7-12zm456 2c-17-10-13-17 15-22l19-3 4 18 3 17h-13c-7 0-20-4-28-10zm270-5 12-14-4-66-3-65h60l-5 70-5 71-15 9c-8 5-23 10-34 10h-18l12-15zm123 3-22-10-11-28-11-27 7-27 6-26 21-15c12-8 27-15 34-15h12l-15 28c-7 15-14 38-14 52s7 37 14 53c16 29 13 31-21 15zm61-9 16-23v-72l-16-22-15-22h16c9 0 27 12 42 26l25 25-5 37c-7 40-21 56-56 67l-24 7 17-23zm86-47v-68l12-12c7-7 24-12 38-12s31 5 38 12l12 12v-24h55l-3 80-4 80h-48v-128l-15-12-14-12-11 7-10 6v139h-50v-68zm192 56c-6-6-12-22-12-34v-22l40-32 41-32-12-14-11-14h33l8 22c4 12 6 30 3 40l-4 17-34 20-34 20v31h43l14-17 14-18-3 20-3 20-35 3-35 3-13-13zm133-13-25-24v-68l23-21 23-22h52l23 20 24 19-39-6-39-6-13 18-14 19v65l16 15 15 16h-11c-6 0-22-11-35-25zm63 13c7-7 12-20 12-30v-18h40v14c0 15-37 46-54 46h-10l12-12zm-2149-79 3-52-13-8-14-9h22c12 0 28 3 37 6l16 6v84l12 12 12 12h-79l4-51zm933-49-12-20h55l-11 8c-6 4-13 13-15 20l-4 12-13-20zm1008 2v-22h32l-13 18c-7 9-15 19-16 21-2 2-3-5-3-17zM328 784l4-65 41 3 40 3 3 13 3 13-6-11-5-10h-58v52l25-4 25-5v24l-25-5-25-4v54l30-4 30-5v17h-85l3-66zm177 1v-65h20l-4 51-3 51 10-6c6-3 23-26 39-51 15-25 31-45 35-45 3 0 8 29 10 65l3 65h-40l13-9 13-8-3-39-3-39-33 48c-18 26-38 47-45 47h-12v-65zm195 56v-8l26 5 26 5-4-62-3-61h25v120h38l5-12 5-13 1 18 1 17H700v-9zm198-57 4-65 41 3 40 3 3 13 3 13-6-11-5-10h-58v52l25-4 25-5v24l-25-5-25-4v54l30-4 30-5v17h-85l3-66zm177 1v-65h25v65l31-32c16-18 35-33 41-33h11l-23 25-23 25 13 25 13 24-13 16-12 15h-63v-65zm60 30v-20l-17-3-18-3v52l18-3 17-3v-20zm105 26v-8l25 5 25 4V720h25l-3 61-4 62 26-5 26-5v17h-120v-9zm220-37c-11-27-25-57-30-66l-10-18h29l3 23 3 22 22 3 22 3 7-25 6-26h26l-25 63c-14 34-27 64-29 66s-13-18-24-45zm30-9v-15h-29l5 15c4 8 10 15 15 15s9-7 9-15zm138-10 4-65h23v130h-30l3-65zm117 0v-65h22l-5 50-5 50h10c5 0 16-12 26-27 9-16 25-39 36-53l19-24 4 67 3 67h-20l3-47 3-48-33 47-33 47-15 1h-15v-65zm210 0v-65h20l-4 51-3 51 11-6c6-4 11-11 11-15 0-5 7-26 16-47l17-39 25 55 25 55 5-19c2-10 2-34 0-52l-4-34h25l-2 65-2 65h-24l-22-47-21-48-20 48-20 47h-33v-65zm240 0v-65h83l7 18 6 17-12-12c-7-7-23-13-36-13h-23v52l20-5 20-5v26l-20-5-20-5v54l29-4 30-4-5 8c-3 4-22 8-42 8h-37v-65zm170 0v-65h20l-3 50-4 50h9c4 0 24-24 43-52l35-52 3 59 3 60 12 7 12 8h-41l4-34c2-19 2-40 0-47l-4-12-30 46-29 47h-30v-65zm195 56v-8l25 5 25 4V720h25l-3 61-4 62 26-5 26-5v17h-120v-9z"/></g><g fill="#383838" transform="matrix(.1 0 0 -.1 0 300)"><path d="M1363 2515c-29-8-76-26-104-41l-52-26-47-48-48-47-27-53-27-52-14-67c-7-36-14-96-14-132v-66l20-78 20-78 24-42c14-23 44-59 67-79l42-38 61-29 61-28 67-11 66-10 64 9c35 5 81 16 102 25s40 16 42 16 4-30 4-66v-65l-10-20-11-19h-59v-40h350v40h-23c-13 0-28 5-35 12l-12 12v272c0 150 3 279 6 288l6 16h38v30h-380v-30h78l23-19 24-19 3-166 3-166-56-26-56-26-73 4-73 3-41 27c-53 35-88 83-112 151l-20 56-11 96-10 97 11 89c22 185 75 272 187 305 55 17 95 18 162 3l50-10 42-28 42-28 29-44c15-23 36-64 46-91l17-48h25v290h-10c-6 0-15-11-22-24-6-14-17-27-25-30l-14-6-37 19c-20 10-61 26-91 35l-55 16-80-1h-81l-52-14zm-170-217 17-13-11-38-10-39-22 6c-12 3-30 6-39 6h-18v15c0 9 7 29 15 45l16 30h17c10 0 26-6 35-12zm-42-138h30l-3-52-3-53-47-3-48-3v45c0 24 3 52 6 61l7 16 14-5c8-3 28-6 44-6zm664-155v-40h-70l-3 37-3 36 18 5c10 3 27 4 38 4l20-2v-40zm-629-29c3-13 4-37 2-52l-3-29-39-3-39-3-7 8c-4 4-11 27-15 50l-6 41 18 5c10 3 33 5 50 6l33 1 6-24zm634-116v-40h-80v80h80v-40zm-602-59c16-52 16-51-17-51h-30l-20 26c-12 15-21 33-21 40v13l18 4c9 3 26 5 38 6l21 1 11-39zm600-94 3-48-38 3-38 3-3 39-3 39 13 9c7 4 24 7 38 6l25-3 3-48zm-14-103 16-6v-89l-37 3-38 3-3 42-3 41 18 5c28 7 30 7 47 1zM383 1215l-32-13-15-31c-20-38-20-74-1-111l15-30 30-15c42-22 47-19 19 11l-24 26v126l24 26c28 30 27 30-16 11zm112-5c10-11 19-20 21-20 1 0 0 9-3 20l-5 20h-31l18-20zm260-95v-115h50l-3 115-3 115h-44v-115zm182 63c0-29 2-81 2-115l1-63h45l-3 115-3 115h-44l2-52zm557 25-10-28 28-70 29-70-5-17-4-18h78l-14 23c-8 12-31 64-51 115-21 50-38 92-39 92s-7-12-12-27zm381-88v-115h67l-12 14-12 15 2 48c1 26 1 72 1 101l-1 52h-45v-115zm-90 53c-16-10-25-18-18-18h12l3-72 3-73 20-3 20-3-3 78c-1 43-4 85-5 94l-2 16-30-19zm-1172-18c-27-11-43-40-43-78v-29l25-23c30-28 39-23 25 14s-13 66 4 99c8 15 14 27 13 26-1 0-12-4-24-9zm56-9c14-25 14-96 1-122l-11-19h11c6 0 22 11 35 25l25 24v18c0 10-3 28-6 41l-7 23-29 15-29 15 10-20zm186-6-25-24v-67l16-22 15-22h53l-20 14-19 14 1 51v50l13 15 13 16h-11c-7 0-23-11-36-25zm248-4 11-31h27l-3 16c-2 9-13 23-25 31l-22 15 12-31zm87 21-15-7v-145h50l-3 80c-2 44-7 80-10 79-4 0-14-3-22-7zm80-7 12-14-4-66-3-65h50l-3 67-3 68-17 13c-9 6-22 12-30 12h-14l12-15zm373 7-11-7-4-73-3-72h66l-11 21-11 20 1 37c4 81 0 91-27 74zm57-7-12-15h52v30h-14c-7 0-19-7-26-15zm274-7 16-22v-92l-12-12-12-12h69l-5 64-5 63-14 17-13 16h-39l15-22zm113 1-27-20v-79l20-20c11-11 24-20 30-20h10l-10 26c-13 33-13 80 1 106 15 28 6 31-24 7zm73-5c13-33 13-90 0-115-12-22-7-24 21-8 11 5 24 22 30 36l10 26-11 32-11 32-24 11-24 11 9-25zm93 19-13-5v-109l10-20 11-19h50l-15 16-16 15v129l-7-1c-5 0-14-3-20-6zm107 1-15-4 2-63c1-34 2-68 3-74v-13h45l-3 80c-2 44-7 79-10 79-4-1-14-3-22-5zm78-5-18-10v-49l41-27 40-27-5-18-4-19 14 12 14 11v47l-36 27-35 27 4 19c3 10 4 18 4 18-1 0-10-5-19-11zm190-1c7-7 12-20 12-30v-18h40v10c0 14-37 50-52 50h-12l12-12zm-1601-16-17-19v-73l20-20 20-20h48l23 20 24 20-27-11-27-12-17 14c-9 7-20 22-24 33l-7 20 7 33 8 33h-8c-4 0-14-8-23-18zm1529-4-16-22v-53l21-27 20-26h55l20 15 19 15-27-6-26-6-22 22-22 22 5 44 5 44h-9c-4 0-15-10-23-22zm-2068-53 5-45-14-17-14-16 25 6c14 4 28 7 32 7 3 0 8 25 10 55l3 55h-53l6-45zm922-60-12-15h41l-5 15c-4 8-7 15-9 15-1 0-8-7-15-15zm1010 0v-15h32l-12 15c-7 8-14 15-16 15s-4-7-4-15zM335 785v-65h22l-5 31-5 32 27-5 26-5v24l-25-5-25-4v54l30-4 30-5v17h-75v-65zm170 0v-65h15v113l41-56c22-32 42-57 45-57 2 0 4 29 4 65v65h-15l4-47 3-47-16 13c-9 7-25 28-37 47-11 19-26 34-32 34h-12v-65zm218 58 29-4-4-60-3-59h20l-3 61-4 62 31-5 30-4-5 8-5 8-57-1-57-2 28-4zm182-58v-65h22l-5 31-5 32 27-5 26-5v24l-25-5-25-4v51l33 4 32 4-40 1-40 2v-65zm173 0 4-65h18l-6 24-6 24 11 7 11 6 26-30c14-17 31-31 37-31h10l-23 25-23 25 13 25 13 24-13 16-12 15h-63l3-65zm62 30v-25h-19c-23 0-35 15-27 35l5 15h41v-25zm100 26v-8l25 5 25 4V720h20v122l25-4 25-5v17h-120v-9zm236 1-7-11 17-26 16-25h-41l5 18 6 17-10-15c-5-8-13-26-17-40l-7-25 14 19 14 18 20-4 19-3 3-23 3-22h29l-10 18c-6 9-19 39-29 66l-18 49-7-11zm154-57v-65h20v130h-20v-65zm120 0v-65h16l-4 39c-2 21-2 47 0 57l4 19 39-59 40-60 2 20c1 10 4 40 5 67l3 47h-7c-4 0-8-21-10-46l-3-46-32 46c-18 25-37 46-43 46h-10v-65zm208 0-3-65h15l1 58 1 57 28-60c16-33 29-57 29-53 1 3 4 14 8 24l6 17-10-6-9-6-18 50-18 49h-26l-4-65zm97 29c-20-48-18-56 3-19l17 30 3-52c2-29 6-53 10-53h7v130h-25l-15-36zm143-29 4-65h15l-5 29-4 29 28 5 29 4-27 2-28 1v49l33 4 32 4-40 1-40 2 3-65zm172 0v-65h16l-4 39c-2 21-2 47 0 57l4 19 39-59 40-60 2 20c1 10 4 40 5 67l3 47h-7c-4 0-8-21-10-46l-3-47-33 47c-18 25-37 46-43 46h-9v-65zm190 56v-8l25 5 25 4V720h20v122l25-4 25-5v17h-120v-9zM400 730l-15-10h12c6 0 15 5 18 10 8 12 4 12-15 0zm570 0-15-10h12c6 0 15 5 18 10 8 12 4 12-15 0zm1290 0-15-10h35v10c0 12-1 12-20 0z"/></g><g fill="#040404" transform="matrix(.1 0 0 -.1 0 300)"><path d="M1370 2514c-30-8-79-27-108-41l-53-27-59-62-58-63-21-56c-12-31-26-91-33-132l-11-75 11-78c13-92 42-174 82-229l29-40 53-36 53-35 64-20 63-20h168l57 20c32 11 59 20 60 20 2 0 3-30 3-66v-65l-10-18-9-18-31-6-30-6v-21h350v30h-48l-11 14-11 13 2 284 3 284 23 3 22 3v29h-380v-30h86l20-14 19-14v-347l-50-25-49-24h-131l-40 21c-57 29-94 69-122 131l-25 53-15 87-15 87 5 95 6 95 16 60 16 60 27 45 28 44 48 31 49 30h172l60-30 59-30 29-36c15-20 39-62 52-95 13-32 29-60 34-62l11-4v282h-7c-4 0-17-12-29-27l-21-27-64 27c-83 35-139 47-219 46h-65l-55-15zm-171-213 15-9-13-41-12-41h-17c-9 0-28 3-40 7l-24 6 6 30c3 17 11 36 17 44l11 13h22c11 0 27-4 35-9zm-16-151 9-8-7-46-7-46h-98v53c0 30 3 57 7 61l7 7 41-7c22-3 44-10 48-14zm641-123c3-12 3-33-1-45l-6-23-41 3-41 3-3 28-3 28 12 15 11 14h66l6-23zm-633-74 5-43-6-11-7-10-44 3-43 3-9 38-9 37 6 16 6 15 47-3 48-3 6-42zm623-59c19-18 20-38 6-65l-11-19h-55l-12 12c-7 7-12 24-12 38 0 32 17 50 46 50h23l15-16zm-591-99 16-45h-77l-23 36-22 36 14 9c8 5 28 9 46 9h31l15-45zm601-60 6-25-6-25-6-25h-76l-6 16c-10 25-7 59 6 72l12 12h64l6-25zm-4-146 11-20-6-30-7-30-41 3-42 3-3 33-3 33 12 15 11 14h57l11-21zM773 1223l-13-5v-218h40v230l-7-1c-5 0-14-3-20-6zm174 0c-4-3-7-55-7-115v-108h40v230h-13c-8 0-17-3-20-7zm948-1-10-7v-215h40l-3 115-3 115h-7c-4 0-11-4-17-8zm-1538-28-27-26-5-32-6-31 10-27c10-27 48-68 63-68h9l-16 30-15 29v92l15 29 16 30h-9c-5 0-21-12-35-26zm1138 4-6-25 26-66c15-36 28-74 29-84l3-18 26-3 27-3v8c0 5-4 13-8 19-5 5-24 47-42 94s-37 89-41 94l-8 9-6-25zm295-31-15-12 3-70 3-69 12-8c7-4 18-8 25-8h13l-11 20-11 21 2 64c2 73 0 78-21 62zm-592-14-18-4v-149h40v80c0 44-1 79-2 79-2-1-11-3-20-6zm75-6c4-10 7-48 7-83v-64h41l-3 66-3 67-25 16-24 16 7-18zm377 4-15-6v-145h41l-4 68c-2 37-4 72-5 78l-2 11-15-6zm54-6-19-14 22-1c12 0 24 4 28 9l5 10-8 5c-5 3-18-1-28-9zm281-66v-79h47l-6 16c-3 9-6 40-6 69v54l-17 10-18 9v-79zm274 73-15-3 4-62 4-62 10-12c6-7 17-13 25-13h15l-10 13-11 13-3 65-3 64-16-3zm-1669-22-20-20v-26c0-33 15-61 40-74l20-11-10 26c-13 34-13 81 0 106l11 19h-11c-5 0-19-9-30-20zm91-15 10-35-10-35-9-35h13c18 0 34 22 41 56l6 29-22 28c-12 15-25 27-30 27h-8l9-35zm168 18-14-16v-89l19-14c11-8 26-14 34-14h13l-15 16-16 15v40c0 22 5 49 10 60l11 19h-14c-8 0-21-7-28-17zm177-5-16-22v-65l26-20c31-25 53-26 79-7l20 14-25-5-25-4-20 15-20 14 1 51c0 28-1 51-2 51-2 0-10-10-18-22zm82-3 4-25h28v13c0 14-19 37-31 37-3 0-4-11-1-25zm969 7-17-19v-70l18-15c9-8 23-18 30-23l14-7-12 22-12 23 4 53 5 54h-7c-4 0-14-8-23-18zm91-36 4-53-12-22-12-23 24 13c31 16 38 28 38 70v36l-18 16c-10 10-21 17-24 17-2 0-3-24 0-54zm180-21 4-75h40l-6 16c-3 9-6 42-6 75v59h-35l3-75zm83 62-13-16 7-20 6-20 34-20 35-20v-32l10 6c6 3 10 17 10 31v24l-32 20-33 20-5 21-5 22-14-16zm135-3c-9-8-18-25-22-38l-5-22 10-27 11-27 25-12 25-11 33 16 32 16-30-5-30-6-19 21-18 20 4 45c2 26 2 46 1 46s-9-7-17-16zm74-2v-23l15-6c25-9 27 2 6 28l-20 24-1-23zm-2155-71v-59l20 8 20 7 5 52 6 51h-51v-59zm930-51-6-10h10c6 0 11 5 11 10 0 6-2 10-4 10-3 0-8-4-11-10zM338 785l-3-65h8c4 0 7 12 8 28 0 15 1 44 2 65 1 20-1 37-5 37-3 0-8-29-10-65zm172 50v-15l9 3c5 1 26-20 45-48 20-27 36-46 36-42 0 12-74 116-82 117-5 0-8-7-8-15zm239-52c5-69 8-65 13 20l3 47h-20l4-67zm161 0c0-82 9-79 12 5l3 62h-15v-67zm170 2v-65h15v130h-15v-65zm215 0v-65h15v130h-15v-65zm340 0v-65h15v130h-15v-65zm144 28c17-21 40-49 51-63l19-25 1 19v19l-7-6-6-7-34 50c-18 28-38 50-44 50h-10l30-37zm194 19c10-10 17-21 17-24 0-13 32-80 36-75 3 2-6 30-20 61l-25 56h-24l16-18zm93 2-6-15 10 6 10 6V720h15l-3 65-4 65h-8c-4 0-11-7-14-16zm134-49v-65h15v130h-15v-65zm187 43c11-13 34-43 52-67l31-44v46l-7-6-6-7-35 50c-19 28-39 50-45 50h-10l20-22zm228-43v-65h15v130h-15v-65zm-1471 43 5-17-15-16-16-16 16-24c9-14 19-25 22-25 4 0 0 10-8 22l-15 23 13 20 13 20-10 15-11 15 6-17zm332 3-6-9 10-4c5-1 11-13 13-25s6-26 10-29c4-4 7-16 7-26v-18h22l-7 18c-4 9-14 36-22 60-16 44-18 48-27 33zm487-76v-40l4 23c2 12 2 30 0 40l-5 17 1-40z"/></g></g></svg>