<?xml version='1.0' encoding='UTF-8'?>
<svg xmlns="http://www.w3.org/2000/svg" width="1024" height="1024" viewBox="0 0 1024 1024" version="1.2" baseProfile="tiny-ps">
  <title>Golden Arthouse Entertainment</title>
  <desc>Official BIMI logo mark for Golden Arthouse Entertainment.</desc><rect width="100%" height="100%" fill="#FFFFFF" /><g id="g1">
    <path id="path1" d="M561.41,829.19v-11.3h11.03c34.67,0,40.12-8.97,41-67.39.63-42.05,1.74-38.71-10.91-32.77-104.38,49.04-245.45,22.76-318.9-59.41-76.73-85.84-85.76-268.82-18.37-372.06,76.73-117.54,248.15-157.24,383.53-88.8,22.85,11.55,22.77,11.53,30.46,6.88,7.25-4.39,12.68-11.87,15.8-21.79l2.51-7.96h17.53v88.76c0,57.04-.53,88.94-1.49,89.26-.82.28-5.05.27-9.42-.01l-7.93-.51-6.6-20.17c-28.8-88.02-78.78-129.91-164.37-137.75-60.77-5.57-112.6,16.6-142.65,61.02-56.61,83.67-55.46,300.26,2.06,386.89,47.8,72,148.07,88.38,220.41,36l8.29-6,.12-83.41c.2-137.47-.12-138.08-73.56-138.36l-10.17-.04v-22.62l119.39.39,119.39.39v21.09l-9.07.87c-24.38,2.34-22.57-12.24-22.57,181.42v164.21l3.23,6.03c5.91,11.02,12.66,14.31,29.39,14.31h10.32v24.1h-218.45v-11.3ZM703.13,789.21c3.96-2.12,4.51-47.86.62-51.75-3.38-3.38-42.46-3.21-46.29.2-2.78,2.47-4.07,45.61-1.48,49.49,2.46,3.68,40.98,5.36,47.16,2.06ZM704.16,696.9c2.61-1.69,2.68-49.35.08-51.96-3.05-3.05-43.18-2.46-46.66.69-4.46,4.03-4.12,45.85.4,50.38,3.3,3.3,41.33,4.04,46.19.9ZM329.41,644.39c8.7-.97,16.06-1.95,16.35-2.17.29-.22-2.19-7.4-5.52-15.94-3.33-8.55-7.19-19.48-8.57-24.3s-3.45-9.12-4.58-9.55c-2.37-.91-43.65,3.37-45.9,4.76-4.49,2.77,4.84,22.69,18.5,39.53,8.58,10.58,7.12,10.2,29.72,7.68h0ZM704.24,602.15c1.24-1.24,1.81-8.7,1.81-23.8,0-27.52,1.97-25.61-26.5-25.61s-24.72-2.62-24.72,26.19c0,26.79-1.8,25.04,25.61,25.04,15.1,0,22.56-.57,23.8-1.81h0ZM296.23,557.97c26.93-3.01,25.3-.53,21.89-33.19-3.68-35.29,1.83-32.27-51.61-28.27l-12.43.93v7.69c.03,16.05,6.47,47.97,10.72,53.1,2.15,2.59,6.34,2.55,31.43-.25h0ZM704.24,511.75c1.23-1.23,1.81-8.37,1.81-22.3s-.58-21.07-1.81-22.3c-2.96-2.96-44.01-2.48-47.05.56-2.81,2.81-3.47,37.95-.81,42.93,1.9,3.55,44.43,4.53,47.86,1.11ZM310.5,456.24c2.34-2.32,5.3-55.93,3.22-58.25-1.4-1.56-54.97-7.08-56.27-5.8-2.39,2.36-5.88,64.07-3.74,66.33,1.64,1.74,54.91-.39,56.8-2.27h0ZM324.5,336.09c7.06-27.69,7.87-26.02-14.67-30.25l-17.33-3.25-4.1,4.93c-11.02,13.24-22.02,42.75-17.58,47.15,2.14,2.12,44.77,6.95,46.79,5.3.55-.45,3.65-11.2,6.89-23.88Z" />
  </g>
</svg>